<?xml version="1.0" encoding="UTF-8" standalone="no"?>
<!-- Created with Inkscape (http://www.inkscape.org/) -->

<svg
   width="218.00961"
   height="249.27582"
   viewBox="0 0 57.681708 65.954225"
   version="1.1"
   id="svg1"
   xmlns="http://www.w3.org/2000/svg"
   xmlns:svg="http://www.w3.org/2000/svg">
  <defs
     id="defs1" />
  <g
     id="layer1"
     transform="translate(-75.770885,-32.820043)">
    <g
       id="g55">
      <path
         d="M 119.09972,35.360314 C 90.472747,26.664787 63.566507,41.737561 85.470487,58.70395 101.63383,65.518645 160.18827,47.841085 119.09972,35.360314 Z m -35.334793,6.613332 c 7.90397,-8.396215 40.963323,-10.824079 41.541403,2.364918 5.95174,18.051114 -60.437913,17.708429 -41.541403,-2.364918 z"
         id="path54"
         style="fill:#f7e293;fill-opacity:1" />
      <path
         d="M 90.123761,57.771491 C 118.75073,66.467018 145.65697,51.394244 123.75299,34.427855 107.58965,27.61316 49.035208,45.29072 90.123761,57.771491 Z M 125.45855,51.158159 C 117.55458,59.554374 84.495225,61.982238 83.917152,48.793241 77.965406,30.742127 144.35506,31.084812 125.45855,51.158159 Z"
         id="path2"
         style="fill:#fdb078;fill-opacity:1" />
      <path
         style="fill:#f7e293;fill-opacity:1;stroke:none;stroke-width:4.99999;stroke-dasharray:none;stroke-opacity:1"
         d="m 96.416675,50.38069 -8.532743,8.421719 4.647625,-0.967046 C 76.634189,98.581141 118.42578,98.311407 111.94646,92.103933 98.850131,89.241124 87.806632,85.112044 91.987627,66.926379 c 1.204454,-3.253984 2.040255,-6.560309 3.505563,-9.777967 0.545587,-0.266378 1.810693,0.03299 3.081413,0.792485 z"
         id="path53" />
      <path
         style="fill:#f36273;fill-opacity:1;stroke:none;stroke-width:4.99999;stroke-dasharray:none;stroke-opacity:1"
         d="m 95.107054,49.721991 -8.532743,5.712822 4.647625,0.508439 C 75.324568,91.642077 117.11615,104.63996 110.63683,96.375487 97.54051,89.354977 86.497011,81.719907 90.678006,64.861586 c 1.204454,-2.871604 2.040255,-5.912587 3.505563,-8.665052 0.545587,-0.09317 1.810693,0.607834 3.081413,1.770744 z"
         id="path9" />
    </g>
  </g>
</svg>
