<svg xmlns="http://www.w3.org/2000/svg" xmlns:xlink="http://www.w3.org/1999/xlink" viewBox="0 0 83.118 22.582"><defs><linearGradient id="c"><stop offset="0" stop-color="#037a94"/><stop offset=".243" stop-color="#1b5784"/><stop offset=".698" stop-color="#0caa9d"/><stop offset=".889" stop-color="#1e5fbd"/><stop offset="1" stop-color="#006a8c"/></linearGradient><linearGradient id="b"><stop offset="0" stop-color="#63a7c7"/><stop offset=".123" stop-color="#5a93c7"/><stop offset=".375" stop-color="#e3f4fa"/><stop offset=".419" stop-color="#dad0f9"/><stop offset=".469" stop-color="#dce6f4"/><stop offset=".488" stop-color="#d7f8e8"/><stop offset=".516" stop-color="#f4f9de"/><stop offset=".698" stop-color="#8a94e8" stop-opacity=".479"/><stop offset=".779" stop-color="#53a6d7"/><stop offset="1" stop-color="#54b8c6"/></linearGradient><linearGradient id="a"><stop offset="0" stop-color="#d8e9f1"/><stop offset=".223" stop-color="#bee9e9"/><stop offset=".375" stop-color="#e3f4fa"/><stop offset=".419" stop-color="#f0e2ed"/><stop offset=".469" stop-color="#dce6f4"/><stop offset=".488" stop-color="#d7f8e8"/><stop offset=".513" stop-color="#f4f9de"/><stop offset=".651" stop-color="#c3f5f3"/><stop offset=".779" stop-color="#bee3f0"/><stop offset="1" stop-color="#a8dbe2"/></linearGradient><linearGradient xlink:href="#a" id="e" x1="9.431" x2="35.948" y1="20.893" y2="31.344" gradientTransform="translate(26.941 68.723)" gradientUnits="userSpaceOnUse"/><linearGradient xlink:href="#b" id="g" x1="14.347" x2="26.818" y1="39.228" y2="24.134" gradientTransform="translate(26.941 68.723)" gradientUnits="userSpaceOnUse"/><linearGradient id="d" x1="6.152" x2="20.99" y1="35.112" y2="35.112" gradientTransform="matrix(1.52203 0 0 .65702 26.941 68.723)" gradientUnits="userSpaceOnUse"><stop offset="0" stop-color="#63a7c7"/><stop offset=".123" stop-color="#5a93c7"/><stop offset=".375" stop-color="#e3f4fa"/><stop offset=".419" stop-color="#dad0f9"/><stop offset=".469" stop-color="#dce6f4"/><stop offset=".488" stop-color="#d7f8e8"/><stop offset=".516" stop-color="#f4f9de"/><stop offset=".698" stop-color="#8a94e8" stop-opacity=".479"/><stop offset=".779" stop-color="#53a6d7"/><stop offset="1" stop-color="#54b8c6"/></linearGradient><linearGradient xlink:href="#c" id="i" x1="19.277" x2="26.161" y1="36.064" y2="23.069" gradientTransform="translate(26.941 68.723)" gradientUnits="userSpaceOnUse"/><linearGradient xlink:href="#b" id="f" x1="23.14" x2="5.23" y1="18.42" y2="42.366" gradientTransform="rotate(180 34.126 62.299)" gradientUnits="userSpaceOnUse"/><linearGradient xlink:href="#d" id="h" x1="6.152" x2="20.99" y1="35.112" y2="35.112" gradientTransform="matrix(1.52203 0 0 .65702 26.941 68.723)" gradientUnits="userSpaceOnUse"/></defs><path fill="url(#e)" d="M47.596 85.37c-6.235 0-11.29 5.055-11.29 11.29 0 6.236 5.055 11.291 11.29 11.291 6.236 0 11.292-5.055 11.292-11.29 0-6.236-5.056-11.292-11.292-11.291zm0 7.778a3.513 3.513 0 1 1 0 7.025 3.513 3.513 0 0 1 0-7.025z" transform="translate(-36.305 -85.37)"/><path fill="url(#f)" d="M41.253 87.34a11.29 11.29 0 0 0-4.881 8.26l7.759 1.541a3.513 3.513 0 0 1-.047-.48 3.513 3.513 0 0 1 3.513-3.513zm12.687 0-6.343 5.808a3.513 3.513 0 0 1 3.513 3.513 3.513 3.513 0 0 1-3.513 3.512l6.343 5.807a11.29 11.29 0 0 0 4.948-9.32 11.29 11.29 0 0 0-4.948-9.32z" transform="translate(-36.305 -85.37)"/><path fill="url(#g)" d="M41.253 87.34a11.29 11.29 0 0 0-4.948 9.32 11.291 11.291 0 0 0 4.948 9.32l6.344-5.806a3.513 3.513 0 1 1 0-7.026zm9.81 8.84c.026.159.042.32.047.48a3.513 3.513 0 0 1-3.513 3.513l6.343 5.807a11.29 11.29 0 0 0 4.881-8.258z" transform="translate(-36.305 -85.37)"/><path fill="url(#h)" d="M37.424 91.792a11.29 11.29 0 0 0-1.119 4.869 11.29 11.29 0 0 0 .04.556 11.29 11.29 0 0 0 1.097 4.323l8.021-2.13a3.513 3.513 0 0 1-1.361-2.74 3.513 3.513 0 0 1 .178-1.096h-.008a3.513 3.513 0 0 1 1.173-1.652zm20.346 0-8.022 2.13a3.513 3.513 0 0 1 1.307 2.175 3.513 3.513 0 0 1 .013.077 3.513 3.513 0 0 1 .037.435 3.513 3.513 0 0 1 .003.062 3.513 3.513 0 0 1-.044.512 3.513 3.513 0 0 1-.004.025 3.513 3.513 0 0 1-1.313 2.202l8.022 2.13a11.29 11.29 0 0 0 1.117-4.86 11.29 11.29 0 0 0 .002-.02 11.29 11.29 0 0 0-1.118-4.868z" transform="translate(-36.305 -85.37)"/><path fill="url(#i)" d="M36.596 94.246a11.29 11.29 0 0 0-.29 2.415 11.29 11.29 0 0 0 .327 2.586l7.808-1.05a3.513 3.513 0 0 1-.357-1.536 3.513 3.513 0 0 1 .315-1.382Zm22.001 0-7.803 1.033a3.513 3.513 0 0 1 .316 1.382 3.513 3.513 0 0 1-.357 1.537l7.807 1.049a11.29 11.29 0 0 0 .328-2.586 11.29 11.29 0 0 0-.29-2.415z" transform="translate(-36.305 -85.37)"/><text xml:space="preserve" x="58.772" y="104.451" fill="#f36273" stroke-width=".448" font-family="Sony" font-size="11.958" font-weight="400" style="-inkscape-font-specification:Sony;text-align:start" transform="matrix(1.07432 0 0 .93082 -36.305 -85.37)"><tspan x="58.772" y="104.451" style="-inkscape-font-specification:Sony">CoEIS</tspan></text><g fill="#1dbee8" stroke-width=".448" font-family="Alegreya Sans SC" font-size="7.056" font-weight="400"><text xml:space="preserve" x="62.757" y="113.104" style="-inkscape-font-specification:&quot;Alegreya Sans SC&quot;;text-align:start" transform="matrix(1.07432 0 0 .93082 -36.305 -85.37)"><tspan x="62.757" y="113.104" style="-inkscape-font-specification:&quot;Alegreya Sans SC&quot;">s<tspan>p1</tspan>cy</tspan></text><text xml:space="preserve" x="80.503" y="113.104" style="-inkscape-font-specification:&quot;Alegreya Sans SC&quot;;text-align:start" transform="matrix(1.07432 0 0 .93082 -36.305 -85.37)"><tspan x="80.503" y="113.104" style="-inkscape-font-specification:&quot;Alegreya Sans SC&quot;">|</tspan></text><text xml:space="preserve" x="84.688" y="113.104" style="-inkscape-font-specification:&quot;Alegreya Sans SC&quot;;text-align:start" transform="matrix(1.07432 0 0 .93082 -36.305 -85.37)"><tspan x="84.688" y="113.104" style="-inkscape-font-specification:&quot;Alegreya Sans SC&quot;">p3pp3r&apos;s</tspan></text></g></svg>